<svg width="734" height="640" viewBox="0 0 734 640" fill="none" xmlns="http://www.w3.org/2000/svg" xmlns:xlink="http://www.w3.org/1999/xlink">
<rect width="734" height="640" fill="url(#pattern0)"/>
<defs>
<pattern id="pattern0" patternContentUnits="objectBoundingBox" width="1" height="1">
<use xlink:href="#image0" transform="translate(-0.00408719) scale(0.0013624 0.0015625)"/>
</pattern>
<image id="image0" width="740" height="640" xlink:href="img/home.png"/>
</defs>
<path d="M222 537.7L442.8 545.7L512 532V553.7L443.5 573.4L222 562.4V537.7Z" fill="#3595F6" fill-opacity="0.75"/>
<path d="M223 536.7V511.7L443.3 515L513 511.7V531.7L443.7 544.7L223 536.7Z" fill="#3595F6" fill-opacity="0.75"/>
<path d="M223 510.7V485.7H444H513V508.7L445 515.7L223 510.7Z" fill="#3595F6" fill-opacity="0.75"/>
<path d="M223 486.7V461.7L444.3 458L512 464.7V486.7H444" fill="#3595F6" fill-opacity="0.75"/>
<path d="M223 460.7V434.7L444.5 431.4L513 442.4V463.7L444 457L223 460.7Z" fill="#3595F6" fill-opacity="0.75"/>
<path d="M222 433.7V410L443 397.7L514 420.7V442L443 429.7L222 433.7Z" fill="#3595F6" fill-opacity="0.75"/>
<path d="M222 411.7V386.7L444.2 370.4L514 399V419.7L443.7 398L222 411.7Z" fill="#3595F6" fill-opacity="0.75"/>
<path d="M222 386.7V361.7L444.5 341.4L514 378V398.7L442 370L222 386.7Z" fill="#3595F6" fill-opacity="0.75"/>
<path d="M222 360.7V336.7L445 312L514 356V377.7L444.7 339.7L222 360.7Z" fill="#3595F6" fill-opacity="0.75"/>
<path d="M222 335.7V311.7L444.5 283L514 334V354.7L443.7 312.4L222 335.7Z" fill="#3595F6" fill-opacity="0.75"/>
<path d="M221 311.7V287.7L443.3 254.7L514 314V333.7L444 283L221 311.7Z" fill="#3595F6" fill-opacity="0.75"/>
<path d="M222 286.7V262.7L443.2 227.7L513 291.7V312.7L444.3 254.4L222 286.7Z" fill="#3595F6" fill-opacity="0.75"/>
<path d="M222 262.7V237.7L444.3 199.7L513 270V290.7L444 226.7L222 262.7Z" fill="#3595F6" fill-opacity="0.75"/>
<path d="M222 236.7V211.7L442.8 168L513 247V269.7L444 196.4L222 236.7Z" fill="#3595F6" fill-opacity="0.75"/>
<path d="M223 212.7V187.7L443 139.7L513 224.7V247.7L442.3 168.4L223 212.7Z" fill="#3595F6" fill-opacity="0.75"/>
<path d="M222 187.7V162.7L441.8 110.7L513 203V225.7L443.3 139.4L222 187.7Z" fill="#3595F6" fill-opacity="0.75"/>
<path d="M222 162.7V136.7L444 80L513 181.7V202.7L443.7 111L222 162.7Z" fill="#3595F6" fill-opacity="0.75"/>

</svg>
